<?xml version="1.0" encoding="UTF-8"?>
<svg viewBox="0 0 128 128" version="1.1" xmlns="http://www.w3.org/2000/svg" xmlns:xlink="http://www.w3.org/1999/xlink">
  <path d="M64,17.4705627 C66.9431067,17.4705627 69.8862133,18.5933201 72.131728,20.8388348 L72.131728,20.8388348 L108.161165,56.868272 C110.40668,59.1137867 111.529437,62.0568933 111.529437,65 C111.529437,67.9431067 110.40668,70.8862133 108.161165,73.131728 L108.161165,73.131728 L72.131728,109.161165 C69.8862133,111.40668 66.9431067,112.529437 64,112.529437 C61.0568933,112.529437 58.1137867,111.40668 55.868272,109.161165 L55.868272,109.161165 L19.8388348,73.131728 C17.5933201,70.8862133 16.4705627,67.9431067 16.4705627,65 C16.4705627,62.0568933 17.5933201,59.1137867 19.8388348,56.868272 L19.8388348,56.868272 L55.868272,20.8388348 C58.1137867,18.5933201 61.0568933,17.4705627 64,17.4705627 Z" id="多边形" stroke="#5CDBD3" fill="#E6FFFB"></path>
</svg>